<?xml version="1.0" encoding="utf-8"?>
<!-- Generator: Adobe Illustrator 16.0.0, SVG Export Plug-In . SVG Version: 6.00 Build 0)  -->
<!DOCTYPE svg PUBLIC "-//W3C//DTD SVG 1.1//EN" "http://www.w3.org/Graphics/SVG/1.1/DTD/svg11.dtd">
<svg version="1.1" id="Layer_1" xmlns="http://www.w3.org/2000/svg" xmlns:xlink="http://www.w3.org/1999/xlink" x="0px" y="0px"
	 width="756.001px" height="121.053px" viewBox="0 0 756.001 121.053" enable-background="new 0 0 756.001 121.053"
	 xml:space="preserve">
<g>
	<path fill="#FFFFFF" stroke="#FFFFFF" stroke-miterlimit="10" d="M0.186,97.025l48.34-66.621v-1.67h-47.9V0.082h91.934v23.027
		l-48.34,66.533V91.4h50.361v28.652H0.186V97.025z"/>
	<path fill="#FFFFFF" stroke="#FFFFFF" stroke-miterlimit="10" d="M115.463,120.053L151.85,0.082h46.758l36.035,119.971h-39.375
		l-5.186-22.676h-32.783l-5.361,22.676H115.463z M173.032,30.58l-9.668,40.869h20.83l-9.316-40.869H173.032z"/>
	<path fill="#FFFFFF" stroke="#FFFFFF" stroke-miterlimit="10" d="M312.918,0.082c30.322,0,44.209,21.182,44.209,44.121
		c0,23.379-14.326,43.418-44.736,43.418h-17.402v32.432h-36.826V0.082H312.918z M294.813,61.078h8.086
		c10.195,0,16.963-6.064,16.963-16.875c0-11.074-6.768-16.875-16.963-16.875h-8.086V61.078z"/>
	<path fill="#FFFFFF" stroke="#FFFFFF" stroke-miterlimit="10" d="M438.303,0.082c30.322,0,44.209,21.182,44.209,44.121
		c0,23.379-14.326,43.418-44.736,43.418h-17.402v32.432h-36.826V0.082H438.303z M420.198,61.078h8.086
		c10.195,0,16.963-6.064,16.963-16.875c0-11.074-6.768-16.875-16.963-16.875h-8.086V61.078z"/>
	<path fill="#FFFFFF" stroke="#FFFFFF" stroke-miterlimit="10" d="M594.45,120.053h-85.518V0.082h85.518v28.389h-49.043v18.896
		h45.791v25.664h-45.791v18.633h49.043V120.053z"/>
	<path fill="#FFFFFF" stroke="#FFFFFF" stroke-miterlimit="10" d="M625.528,120.053V0.082h38.584l25.664,53.525h1.23l25.752-53.525
		h38.232v119.971h-33.135V53.168h-1.67l-20.391,44.121H680.46l-20.567-44.121h-1.758v66.885H625.528z"/>
</g>
</svg>
